<svg height="464pt" viewBox="-104 0 464 464" width="464pt" xmlns="http://www.w3.org/2000/svg"><path d="m32 0h192c17.671875 0 32 14.328125 32 32v32h-256v-32c0-17.671875 14.328125-32 32-32zm0 0" fill="#acabb1"/><path d="m0 384h256v48c0 17.671875-14.328125 32-32 32h-192c-17.671875 0-32-14.328125-32-32zm0 0" fill="#acabb1"/><path d="m0 64h256v320h-256zm0 0" fill="#ffeb99"/><path d="m256 84.160156v299.839844h-256v-26.160156c112.425781-61.476563 202.160156-157.40625 256-273.679688zm0 0" fill="#ffe477"/><g fill="#57565c"><path d="m120 416h16v16h-16zm0 0"/><path d="m64 24h16v16h-16zm0 0"/><path d="m96 24h16v16h-16zm0 0"/></g><path d="m40 104h24v-16h-32c-4.417969 0-8 3.582031-8 8v32h16zm0 0" fill="#ffd422"/><path d="m128 136-96.992188 168h193.984376zm0 0" fill="#ff7956"/><path d="m120 192h16v64h-16zm0 0" fill="#ffd422"/><path d="m120 264h16v16h-16zm0 0" fill="#ffd422"/></svg>