<?xml version="1.0" encoding="iso-8859-1"?>
<!-- Generator: Adobe Illustrator 19.0.0, SVG Export Plug-In . SVG Version: 6.00 Build 0)  -->
<svg version="1.1" id="Capa_1" xmlns="http://www.w3.org/2000/svg" xmlns:xlink="http://www.w3.org/1999/xlink" x="0px" y="0px"
	 viewBox="0 0 436.907 436.907" style="enable-background:new 0 0 436.907 436.907;" xml:space="preserve">
<circle style="fill:#334D5C;" cx="218.453" cy="218.453" r="218.453"/>
<path style="opacity:0.1;enable-background:new    ;" d="M422.212,297.214L238.781,113.783v0.035
	c-18.662-21.306-41.958-23.365-41.958-23.365c31.76,36.141,5.3,56.778-7.666,67.901c-25.888,22.209-7.666,52.569-7.666,52.569
	h-17.249c0,13.668,6.733,25.945,17.45,34.538l-0.016-0.001l7.918,7.918l12.62,69.662l0.615,3.393l1.348,7.438l0.256,1.413
	l2.023,11.169l79.704,79.703C348.599,405.815,398.649,358.127,422.212,297.214z"/>
<path style="fill:#E56353;" d="M272.665,210.924H164.242c0,16.585,9.898,31.137,24.821,39.523l17.393,96.007h23.997l17.393-96.007
	C262.767,242.061,272.665,227.508,272.665,210.924z"/>
<g>
	<polygon style="fill:#44C4A1;" points="234.079,326.433 202.828,326.433 200.738,314.899 236.168,314.899 	"/>
	<polygon style="fill:#44C4A1;" points="231.342,341.54 205.565,341.54 204.176,333.872 232.731,333.872 	"/>
</g>
<path style="fill:#FCD462;" d="M196.823,90.453c0,0,75.568,6.571,63.521,120.471h-78.854c0,0-18.222-30.36,7.666-52.569
	C202.123,147.232,228.584,126.595,196.823,90.453z"/>
<path style="fill:#DC8744;" d="M214.438,144.665c0,0,30.984,9.309,24.961,66.259h-39.427c0,0-9.111-15.18,3.833-26.285
	C210.288,179.078,230.318,162.736,214.438,144.665z"/>
<g>
</g>
<g>
</g>
<g>
</g>
<g>
</g>
<g>
</g>
<g>
</g>
<g>
</g>
<g>
</g>
<g>
</g>
<g>
</g>
<g>
</g>
<g>
</g>
<g>
</g>
<g>
</g>
<g>
</g>
</svg>
